<?xml version="1.0" standalone="no"?>
<!DOCTYPE svg PUBLIC "-//W3C//DTD SVG 20010904//EN"
 "http://www.w3.org/TR/2001/REC-SVG-20010904/DTD/svg10.dtd">
<svg version="1.0" xmlns="http://www.w3.org/2000/svg"
 width="300.000000pt" height="124.000000pt" viewBox="0 0 300.000000 124.000000"
 preserveAspectRatio="xMidYMid meet">
<metadata>
Created by potrace 1.10, written by Peter Selinger 2001-2011
</metadata>
<g transform="translate(0.000000,124.000000) scale(0.100000,-0.100000)"
fill="#000000" stroke="none">
<path d="M2082 1113 l3 -46 -55 2 c-79 3 -108 -21 -112 -92 l-3 -52 -40 0 -40
0 -3 -87 -3 -88 46 0 45 0 0 -68 c0 -59 3 -72 23 -90 22 -21 31 -22 246 -22
l222 0 25 25 c22 23 25 33 23 88 l-3 62 42 3 43 3 -3 87 -3 87 -37 -1 -38 -1
0 49 c0 39 -5 54 -25 74 -22 22 -33 25 -83 23 l-57 -3 -3 47 -3 47 -105 0
-105 0 3 -47z m186 -9 l-3 -36 -75 0 -75 0 -3 36 -3 36 81 0 81 0 -3 -36z
m160 -81 c8 -12 12 -70 12 -205 0 -175 -1 -189 -20 -208 -19 -19 -33 -20 -228
-20 -172 0 -211 3 -230 16 -21 15 -22 20 -22 213 0 149 3 201 13 209 17 14 85
18 292 15 147 -2 172 -5 183 -20z m-508 -189 l0 -65 -32 3 c-33 3 -33 3 -36
66 l-3 62 36 0 35 0 0 -66z m600 1 l0 -65 -30 0 -30 0 0 65 0 65 30 0 30 0 0
-65z"/>
<path d="M2043 950 c-69 -28 -48 -140 27 -140 43 0 70 26 70 69 0 55 -48 90
-97 71z m70 -41 c16 -26 0 -68 -29 -75 -29 -7 -64 18 -64 47 0 44 70 65 93 28z"/>
<path d="M2274 948 c-22 -10 -44 -47 -44 -72 0 -7 9 -25 21 -40 15 -19 30 -26
54 -26 24 0 39 7 54 26 12 15 21 33 21 40 0 26 -23 62 -47 73 -28 13 -31 13
-59 -1z m71 -42 c28 -43 -18 -91 -63 -67 -26 14 -33 45 -15 70 19 29 59 27 78
-3z"/>
<path d="M2100 742 c-49 -7 -66 -45 -35 -76 23 -22 228 -22 250 0 18 19 19 35
2 57 -10 14 -30 18 -102 20 -50 1 -101 0 -115 -1z m78 -45 c3 -22 -1 -27 -17
-27 -15 0 -21 6 -21 23 0 46 33 49 38 4z m60 0 c3 -22 -1 -27 -17 -27 -17 0
-21 6 -21 31 0 24 4 30 18 27 10 -2 18 -14 20 -31z m-118 -2 c0 -28 -21 -33
-40 -10 -15 18 -5 35 21 35 14 0 19 -7 19 -25z m183 11 c6 -16 -11 -36 -30
-36 -7 0 -13 11 -13 25 0 18 5 25 19 25 10 0 21 -6 24 -14z"/>
<path d="M790 511 l0 -59 -30 15 c-64 31 -130 -14 -130 -89 0 -44 21 -93 45
-102 28 -10 80 -7 94 7 11 10 14 10 18 0 3 -7 16 -13 29 -13 l24 0 0 150 0
150 -25 0 c-24 0 -25 -3 -25 -59z m-14 -107 c19 -29 11 -69 -17 -87 -26 -16
-65 0 -79 33 -27 66 58 114 96 54z"/>
<path d="M1560 420 l0 -150 25 0 25 0 0 150 0 150 -25 0 -25 0 0 -150z"/>
<path d="M1640 420 l0 -150 25 0 25 0 0 150 0 150 -25 0 -25 0 0 -150z"/>
<path d="M1730 555 c-17 -20 -5 -45 20 -45 11 0 23 7 26 15 6 15 -11 45 -26
45 -4 0 -13 -7 -20 -15z"/>
<path d="M196 540 c-38 -25 -65 -75 -66 -123 0 -50 33 -113 70 -132 41 -21
106 -19 146 6 37 22 42 40 19 59 -12 10 -20 8 -41 -9 -60 -47 -134 -6 -134 75
0 72 64 114 121 81 25 -14 29 -14 43 2 22 24 20 28 -14 46 -41 21 -109 19
-144 -5z"/>
<path d="M1090 535 c0 -22 4 -25 40 -25 l40 0 0 -120 0 -120 31 0 31 0 -4 120
-4 120 38 0 c34 0 38 3 38 25 l0 25 -105 0 -105 0 0 -25z"/>
<path d="M462 465 c-38 -17 -67 -74 -57 -113 3 -13 19 -37 35 -53 40 -41 100
-41 141 0 81 81 -14 213 -119 166z m82 -51 c20 -20 20 -68 0 -88 -48 -48 -118
21 -80 79 19 29 57 33 80 9z"/>
<path d="M925 469 c-37 -21 -55 -53 -55 -97 0 -35 6 -49 29 -73 25 -24 38 -29
78 -29 55 0 76 10 68 32 -5 12 -17 14 -50 10 -28 -3 -50 0 -60 8 -31 26 -16
33 61 27 l76 -6 -5 41 c-3 24 -15 51 -29 65 -28 27 -84 38 -113 22z m79 -55
c27 -26 18 -34 -39 -34 -59 0 -64 4 -38 32 20 22 56 23 77 2z"/>
<path d="M1384 471 c-53 -23 -81 -101 -54 -152 22 -40 120 -65 159 -40 27 17
6 36 -37 33 -43 -4 -82 11 -82 30 0 7 23 9 75 5 l75 -5 0 34 c0 64 -78 119
-136 95z m74 -53 c26 -26 13 -38 -38 -38 -34 0 -50 4 -50 13 0 21 22 37 50 37
14 0 31 -5 38 -12z"/>
<path d="M1861 466 c-55 -31 -67 -106 -25 -155 28 -33 67 -41 106 -20 28 15
35 3 18 -29 -19 -33 -55 -43 -97 -26 -32 12 -33 12 -33 -11 0 -27 23 -38 83
-37 50 1 90 29 98 68 4 16 7 71 8 122 l1 92 -37 0 c-21 -1 -51 1 -68 4 -17 4
-40 0 -54 -8z m95 -60 c33 -52 -31 -111 -77 -70 -37 34 -14 94 36 94 15 0 31
-10 41 -24z"/>
<path d="M2103 466 c-105 -47 -64 -196 55 -196 26 0 54 5 62 10 26 16 -5 34
-53 31 -34 -2 -47 2 -62 20 l-20 22 78 -5 c89 -6 96 -1 78 55 -22 64 -78 90
-138 63z m79 -53 c29 -26 21 -33 -37 -33 -59 0 -64 4 -38 32 20 22 51 23 75 1z"/>
<path d="M2554 470 c-56 -22 -79 -93 -49 -150 25 -49 82 -64 140 -38 29 13 31
21 10 38 -12 10 -19 10 -27 2 -31 -31 -88 2 -88 50 0 42 66 79 85 48 7 -12 45
5 45 21 0 11 -61 39 -82 38 -7 0 -23 -4 -34 -9z"/>
<path d="M2754 470 c-32 -13 -64 -59 -64 -92 0 -40 24 -82 55 -96 31 -14 104
-16 125 -2 25 15 -5 35 -49 31 -38 -2 -81 15 -81 32 0 5 35 7 77 6 67 -4 78
-2 81 13 6 32 -30 90 -64 104 -38 16 -50 16 -80 4z m79 -58 c23 -25 13 -32
-45 -32 -50 0 -58 8 -32 34 21 21 57 20 77 -2z"/>
<path d="M1720 370 l0 -100 29 0 29 0 -1 100 0 100 -28 0 -29 0 0 -100z"/>
<path d="M2280 369 l0 -99 28 0 27 0 -3 70 c-3 66 -2 70 22 81 42 19 56 -1 56
-82 l0 -69 31 0 c30 0 31 2 25 31 -3 17 -6 53 -6 80 0 72 -19 87 -109 87 l-71
-1 0 -98z"/>
<path d="M660 132 c0 -10 6 -26 13 -36 13 -17 14 -16 27 13 7 17 10 34 7 38
-4 3 -11 -5 -16 -18 -10 -24 -10 -24 -10 -1 -1 26 -21 30 -21 4z"/>
<path d="M721 126 c-8 -13 -10 -30 -6 -36 5 -8 12 -2 21 20 16 38 17 40 6 40
-5 0 -14 -11 -21 -24z"/>
<path d="M1086 123 c9 -36 19 -47 38 -40 26 10 19 46 -10 57 -35 14 -35 13
-28 -17z"/>
<path d="M1476 137 c-23 -17 -17 -52 9 -52 15 0 21 8 23 33 4 35 -4 39 -32 19z"/>
<path d="M1752 139 c-17 -6 -22 -15 -20 -31 2 -12 8 -23 13 -25 19 -6 37 14
33 39 -3 22 -6 24 -26 17z"/>
<path d="M774 125 c-8 -21 3 -45 20 -45 16 0 31 34 21 50 -9 15 -35 12 -41 -5z"/>
<path d="M897 134 c-13 -13 -7 -62 7 -67 20 -8 38 17 34 45 -3 22 -27 35 -41
22z"/>
<path d="M977 133 c-11 -10 -8 -41 4 -49 16 -9 41 20 33 39 -6 17 -25 22 -37
10z"/>
<path d="M1170 125 c-11 -13 -11 -19 3 -33 20 -19 41 -5 35 24 -4 24 -22 28
-38 9z"/>
<path d="M1243 107 c2 -43 13 -48 27 -11 13 33 13 54 0 34 -9 -13 -11 -13 -19
0 -7 10 -9 4 -8 -23z"/>
<path d="M1314 125 c-8 -21 3 -45 20 -45 16 0 31 34 21 50 -9 15 -35 12 -41
-5z"/>
<path d="M1391 108 c1 -22 3 -26 6 -13 8 35 23 41 23 10 0 -21 3 -26 11 -18
16 16 1 53 -22 53 -15 0 -19 -7 -18 -32z"/>
<path d="M1585 130 c-3 -6 -3 -19 0 -31 7 -21 35 -23 43 -1 2 7 -2 10 -12 6
-9 -3 -16 -1 -16 5 0 6 7 11 15 11 8 0 15 5 15 10 0 13 -37 13 -45 0z"/>
<path d="M1660 124 c-11 -12 -10 -18 3 -32 16 -15 18 -15 33 0 19 18 12 48 -9
48 -8 0 -20 -7 -27 -16z"/>
<path d="M1817 125 c-9 -22 3 -46 22 -43 10 2 16 13 16 28 0 28 -29 40 -38 15z"/>
</g>
</svg>
