<?xml version="1.0" standalone="no"?>
<!DOCTYPE svg PUBLIC "-//W3C//DTD SVG 20010904//EN"
 "http://www.w3.org/TR/2001/REC-SVG-20010904/DTD/svg10.dtd">
<svg version="1.0" xmlns="http://www.w3.org/2000/svg"
 width="300.000000pt" height="139.000000pt" viewBox="0 0 300.000000 139.000000"
 preserveAspectRatio="xMidYMid meet">
<metadata>
Created by potrace 1.10, written by Peter Selinger 2001-2011
</metadata>
<g transform="translate(0.000000,139.000000) scale(0.100000,-0.100000)"
fill="#000000" stroke="none">
<path d="M2380 790 c0 -5 7 -10 15 -10 11 0 14 -9 13 -29 -2 -17 2 -29 7 -28
6 1 9 14 9 30 -2 21 3 27 18 27 10 0 16 5 13 10 -3 6 -22 10 -41 10 -19 0 -34
-4 -34 -10z"/>
<path d="M2480 760 c0 -44 19 -56 21 -12 1 27 1 27 8 3 9 -33 31 -39 31 -9 0
16 -3 19 -9 10 -6 -10 -10 -5 -14 17 -10 48 -37 41 -37 -9z"/>
<path d="M2544 769 c3 -17 6 -35 6 -40 0 -5 5 -9 10 -9 6 0 10 18 10 40 0 30
-4 40 -16 40 -13 0 -15 -7 -10 -31z"/>
<path d="M636 699 c-18 -14 -26 -30 -26 -53 0 -45 23 -72 77 -90 25 -9 55 -23
65 -33 23 -21 23 -65 0 -86 -21 -19 -86 -23 -126 -7 -21 7 -26 6 -26 -5 0 -20
73 -38 121 -30 71 12 101 84 59 138 -11 14 -43 33 -70 42 -48 16 -80 45 -80
72 0 42 82 69 131 43 15 -8 19 -7 19 4 0 33 -103 37 -144 5z"/>
<path d="M1175 683 c-9 -21 -29 -74 -45 -118 -15 -44 -35 -97 -44 -117 -19
-45 -20 -48 -3 -48 8 0 20 21 28 48 l15 47 71 3 71 3 17 -51 c10 -30 22 -50
31 -50 18 0 20 -8 -49 174 -30 77 -59 142 -65 144 -6 2 -18 -14 -27 -35z m51
-66 c12 -34 25 -70 29 -79 6 -16 0 -18 -55 -18 -55 0 -61 2 -55 18 3 9 16 45
28 80 12 34 24 62 27 62 3 0 15 -28 26 -63z"/>
<path d="M1625 695 c-50 -50 -27 -104 62 -141 44 -19 68 -35 74 -51 10 -28 -3
-68 -26 -77 -25 -9 -94 -7 -115 4 -12 6 -21 7 -25 1 -10 -17 37 -35 92 -35 65
-1 103 29 103 81 0 52 -15 70 -77 93 -32 12 -63 26 -70 32 -18 15 -16 63 3 82
17 18 70 21 108 6 20 -7 26 -6 26 4 0 19 -23 26 -81 26 -40 0 -55 -5 -74 -25z"/>
<path d="M2090 560 c0 -136 2 -160 15 -160 12 0 15 15 15 78 l0 77 87 -2 88
-1 0 -76 c0 -54 4 -76 13 -76 9 0 12 39 12 161 0 118 -3 160 -12 157 -7 -3
-11 -27 -9 -70 l2 -67 -90 -3 -91 -3 0 73 c0 57 -3 72 -15 72 -13 0 -15 -24
-15 -160z"/>
<path d="M945 210 c-4 -7 175 -10 529 -10 351 0 536 3 536 10 0 14 -1056 14
-1065 0z"/>
</g>
</svg>
